<svg width="83" height="83" viewBox="0 0 83 83" fill="none" xmlns="http://www.w3.org/2000/svg">
<path opacity="0.2" d="M77.0538 27.6429L35.4241 69.2726C35.1832 69.5138 34.8971 69.7051 34.5822 69.8356C34.2674 69.9661 33.9299 70.0333 33.589 70.0333C33.2481 70.0333 32.9106 69.9661 32.5957 69.8356C32.2809 69.7051 31.9948 69.5138 31.7539 69.2726L8.53985 45.9289C8.0538 45.4425 7.78076 44.783 7.78076 44.0954C7.78076 43.4078 8.0538 42.7483 8.53985 42.2619L16.3211 34.4807C16.562 34.2395 16.8481 34.0482 17.1629 33.9177C17.4778 33.7872 17.8153 33.72 18.1562 33.72C18.497 33.72 18.8346 33.7872 19.1494 33.9177C19.4643 34.0482 19.7504 34.2395 19.9913 34.4807L33.7187 47.7996L65.6024 16.3212C65.8432 16.08 66.1293 15.8887 66.4442 15.7582C66.7591 15.6277 67.0966 15.5605 67.4374 15.5605C67.7783 15.5605 68.1158 15.6277 68.4307 15.7582C68.7456 15.8887 69.0316 16.08 69.2725 16.3212L77.0538 23.9728C77.2949 24.2137 77.4862 24.4997 77.6168 24.8146C77.7473 25.1295 77.8145 25.467 77.8145 25.8078C77.8145 26.1487 77.7473 26.4862 77.6168 26.8011C77.4862 27.116 77.2949 27.402 77.0538 27.6429Z" fill="white"/>
<path d="M78.876 22.1247L71.0948 14.4861C70.1224 13.517 68.8056 12.9728 67.4327 12.9728C66.0599 12.9728 64.743 13.517 63.7707 14.4861L33.7188 44.1683L21.8233 32.6261C20.8489 31.6601 19.5315 31.1195 18.1595 31.1225C16.7874 31.1256 15.4725 31.672 14.5024 32.6424L6.72115 40.4236C5.75003 41.3962 5.20459 42.7145 5.20459 44.0889C5.20459 45.4633 5.75003 46.7816 6.72115 47.7542L29.9417 71.0979C30.4234 71.5798 30.9953 71.962 31.6248 72.2228C32.2542 72.4835 32.9289 72.6177 33.6102 72.6177C34.2916 72.6177 34.9662 72.4835 35.5957 72.2228C36.2251 71.962 36.7971 71.5798 37.2788 71.0979L78.8923 29.4747C79.375 28.9917 79.7576 28.4181 80.0181 27.7869C80.2786 27.1557 80.412 26.4792 80.4104 25.7964C80.4089 25.1135 80.2726 24.4376 80.0093 23.8075C79.746 23.1775 79.3609 22.6056 78.876 22.1247ZM33.5956 67.4375L10.3751 44.0938L18.1563 36.3125C18.1658 36.3203 18.1745 36.329 18.1823 36.3384L31.913 49.6606C32.3977 50.1349 33.0488 50.4005 33.727 50.4005C34.4051 50.4005 35.0563 50.1349 35.541 49.6606L67.4571 18.1563L75.2188 25.8078L33.5956 67.4375Z" fill="white"/>
</svg>
