<svg width="20" height="20" viewBox="0 0 20 20" fill="none" xmlns="http://www.w3.org/2000/svg">
<path d="M17.13 7.87585L17.9643 7.04153C18.628 6.37783 19.0009 5.47766 19.0009 4.53905C19.0009 3.60043 18.628 2.70026 17.9643 2.03656C17.3006 1.37286 16.4005 1 15.4618 1C14.5232 1 13.6231 1.37286 12.9594 2.03656L12.1251 2.87088L4.45514 10.539C3.93584 11.0592 3.67573 11.3193 3.45253 11.6055C3.18918 11.9434 2.96316 12.3089 2.77842 12.6954C2.62272 13.023 2.50662 13.3722 2.27441 14.0688L1.2898 17.0218M17.13 7.87585C17.13 7.87585 15.3579 7.77144 13.7937 6.20722C12.2295 4.6439 12.126 2.87088 12.126 2.87088M17.13 7.87585L9.46102 15.544C8.94171 16.0633 8.6816 16.3234 8.3954 16.5466C8.05747 16.8099 7.69204 17.0359 7.30549 17.2207C6.97788 17.3764 6.62958 17.4925 5.93207 17.7247L2.97912 18.7093M2.97912 18.7093L2.25731 18.9505C2.08906 19.0069 1.9084 19.0153 1.73565 18.9747C1.5629 18.9341 1.40491 18.8461 1.27942 18.7206C1.15394 18.5951 1.06594 18.4371 1.02533 18.2643C0.984708 18.0916 0.993078 17.9109 1.0495 17.7427L1.2907 17.0209L2.97912 18.7093Z" stroke="white" stroke-width="1.5"/>
</svg>
