<svg width="30" height="30" viewBox="0 0 30 30" fill="none" xmlns="http://www.w3.org/2000/svg">
<path d="M9.26369 26.9678C7.86916 26.3789 6.61525 25.5322 5.54006 24.457C4.46988 23.3901 3.61716 22.1255 3.02932 20.7334C2.41938 19.2922 2.1065 17.7427 2.10939 16.1777V16.1836C2.10783 17.7208 2.40981 19.2433 2.99803 20.6636C3.58625 22.0838 4.44912 23.374 5.53713 24.46C6.61232 25.5352 7.8633 26.3789 9.25783 26.9678C10.6996 27.5795 12.2502 27.8934 13.8164 27.8906C14.6074 27.8906 15.3867 27.8115 16.1514 27.6592C15.3926 27.8115 14.6162 27.8877 13.8281 27.8877C12.2461 27.8906 10.711 27.5801 9.26369 26.9678ZM16.4063 13.8281C16.2774 13.8281 16.1719 13.7227 16.1719 13.5938V2.34082C16.1719 2.30273 16.1807 2.26758 16.1983 2.23535C16.1719 2.27344 16.1543 2.32031 16.1543 2.37012V13.6113C16.1543 13.7402 16.2598 13.8457 16.3887 13.8457L27.627 13.8164C27.6738 13.8164 27.7178 13.8018 27.7559 13.7783C27.7266 13.793 27.6914 13.7988 27.6563 13.7988L16.4063 13.8281Z" fill="black" fill-opacity="0.15"/>
<path d="M18.1582 4.32422V11.8418L25.6699 11.8213C25.2891 9.99023 24.3721 8.29102 23.0332 6.95508C21.6973 5.62446 20.0037 4.71049 18.1582 4.32422Z" fill="black" fill-opacity="0.15"/>
<path d="M12.832 6.49512C10.6084 6.71777 8.54883 7.69336 6.94922 9.29297C5.1123 11.1299 4.10156 13.5732 4.10156 16.1719C4.10156 18.7705 5.1123 21.2139 6.94922 23.0508C8.77441 24.876 11.2002 25.8867 13.7812 25.8984C16.3652 25.9102 18.8408 24.8994 20.6748 23.0801C22.2949 21.4746 23.2793 19.4033 23.5049 17.168H12.832V6.49512Z" fill="black" fill-opacity="0.15"/>
<path d="M25.3125 15.1758H14.8242V4.6875C14.8242 4.55859 14.7188 4.45313 14.5899 4.45313H13.8281C12.2892 4.45061 10.7649 4.75241 9.34301 5.34118C7.92112 5.92995 6.62968 6.79405 5.54299 7.88379C4.4728 8.95067 3.62009 10.2153 3.03224 11.6074C2.42053 13.0513 2.10664 14.6038 2.10939 16.1719V16.1777C2.10939 17.7568 2.41994 19.2891 3.02931 20.7334C3.61818 22.1279 4.46486 23.3818 5.54006 24.457C6.61525 25.5322 7.86916 26.3789 9.26369 26.9678C10.7075 27.5795 12.2601 27.8934 13.8281 27.8906C14.6162 27.8906 15.3926 27.8145 16.1514 27.6621C16.916 27.5068 17.666 27.2783 18.3897 26.9707C19.7842 26.3818 21.0381 25.5352 22.1133 24.46C23.1885 23.3848 24.0352 22.1309 24.624 20.7363C25.2358 19.2925 25.5496 17.74 25.5469 16.1719V15.4102C25.5469 15.2813 25.4414 15.1758 25.3125 15.1758ZM20.6748 23.0801C19.7676 23.9802 18.6918 24.6924 17.5088 25.1761C16.3259 25.6597 15.0592 25.9052 13.7813 25.8984C11.2002 25.8867 8.77443 24.876 6.94924 23.0508C5.11232 21.2139 4.10158 18.7705 4.10158 16.1719C4.10158 13.5732 5.11232 11.1299 6.94924 9.29297C8.54885 7.69336 10.6084 6.71777 12.832 6.49512V17.168H23.5049C23.2793 19.4033 22.2949 21.4746 20.6748 23.0801Z" fill="black"/>
<path d="M27.8906 13.5469L27.8145 12.7207C27.5654 10.0225 26.3672 7.47656 24.4395 5.55469C22.5104 3.62929 19.9697 2.43769 17.2559 2.18555L16.4268 2.10938C16.3271 2.10059 16.2393 2.15332 16.1982 2.23535C16.182 2.2682 16.173 2.30418 16.1719 2.34082V13.5938C16.1719 13.7227 16.2773 13.8281 16.4062 13.8281L27.6562 13.7988C27.6914 13.7988 27.7236 13.79 27.7559 13.7783C27.799 13.7578 27.835 13.7247 27.859 13.6834C27.8831 13.6421 27.8941 13.5945 27.8906 13.5469ZM18.1582 11.8418V4.32422C20.0037 4.71049 21.6973 5.62446 23.0332 6.95508C24.3721 8.29102 25.2891 9.99023 25.6699 11.8213L18.1582 11.8418Z" fill="black"/>
</svg>
