<svg width="30" height="30" viewBox="0 0 30 30" fill="none" xmlns="http://www.w3.org/2000/svg">
<path d="M25.1748 16.6904L25.1807 16.6934C25.2715 16.1396 25.3154 15.5742 25.3154 15.0146C25.3154 14.5137 25.2773 14.0098 25.207 13.5176C25.2773 14.0068 25.3125 14.502 25.3125 14.9971C25.3125 15.5654 25.2656 16.1338 25.1748 16.6904ZM2.90039 11.6631C2.88574 11.6514 2.87402 11.6396 2.85938 11.625C2.87988 11.6455 2.90039 11.666 2.92383 11.6865L4.84277 13.3242V13.3213L2.90039 11.6631ZM18.6211 5.33496H18.624L18.1699 2.87988C18.1641 2.85059 18.1582 2.82422 18.1494 2.79785C18.1523 2.8125 18.1582 2.83008 18.1611 2.84473L18.6211 5.33496ZM20.2031 21.3457L21.123 20.5898L23.8418 21.5537C24.3398 20.8828 24.7588 20.1621 25.0898 19.3975L22.9014 17.5254L23.0947 16.3506C23.168 15.9082 23.2061 15.4541 23.2061 15C23.2061 14.5459 23.168 14.0918 23.0947 13.6494L22.9043 12.4805L25.0928 10.6084C24.7588 9.84668 24.3428 9.12305 23.8447 8.45215L21.126 9.41602L20.2061 8.66016C19.5059 8.08594 18.7236 7.63477 17.8828 7.31836L16.7666 6.89941L16.2422 4.05762C15.4148 3.96387 14.5794 3.96387 13.752 4.05762L13.2275 6.90527L12.1172 7.32422C11.2822 7.64063 10.5059 8.0918 9.81152 8.66309L8.8916 9.42188L6.15527 8.44922C5.65723 9.12012 5.23828 9.84082 4.90723 10.6055L7.11914 12.4951L6.92871 13.667C6.85547 14.1035 6.82031 14.5518 6.82031 15C6.82031 15.4453 6.8584 15.8965 6.92871 16.333L7.11914 17.5049L4.90723 19.3945C5.24121 20.1563 5.65723 20.8799 6.15527 21.5508L8.8916 20.5781L9.81152 21.3369C10.5059 21.9082 11.2822 22.3594 12.1172 22.6758L13.2246 23.1006L13.749 25.9482C14.5752 26.042 15.416 26.042 16.2393 25.9482L16.7637 23.1064L17.8799 22.6875C18.7236 22.3711 19.5029 21.9199 20.2031 21.3457ZM15.0146 19.8721C14.1211 19.8721 13.2803 19.6436 12.5449 19.2422C10.9365 18.3691 9.84375 16.667 9.84375 14.707C9.84375 11.8594 12.1523 9.55078 15 9.55078C16.96 9.55078 18.6621 10.6436 19.5352 12.252C19.9365 12.9844 20.165 13.8252 20.165 14.7217C20.165 17.5664 17.8594 19.8721 15.0146 19.8721ZM6.07031 23.8125C5.90918 23.8682 5.74219 23.8799 5.58398 23.8477C5.75098 23.8828 5.92676 23.877 6.09668 23.8184L8.48145 22.9688C8.47852 22.9658 8.47266 22.9629 8.46973 22.96L6.07031 23.8125ZM27.0938 11.6631L25.1748 13.3037C25.1748 13.3096 25.1777 13.3184 25.1777 13.3242L27.0938 11.6865C27.3018 11.5078 27.4189 11.25 27.4219 10.9834C27.4131 11.2412 27.2959 11.4902 27.0938 11.6631Z" fill="black" fill-opacity="0.15"/>
<path d="M27.416 18.9434C27.4307 19.0811 27.416 19.2217 27.3662 19.3564L27.3398 19.4326C26.8102 20.9085 26.0193 22.277 25.0049 23.4727L24.9521 23.5342C24.8292 23.6795 24.665 23.7839 24.4814 23.8336C24.2977 23.8833 24.1032 23.876 23.9238 23.8125L21.542 22.9658C20.6682 23.6857 19.6812 24.2559 18.6211 24.6533L18.1611 27.1436C18.1264 27.3309 18.0355 27.5033 17.9005 27.6378C17.7655 27.7723 17.5928 27.8625 17.4053 27.8965L17.3262 27.9111C16.5605 28.0496 15.784 28.1192 15.0059 28.1191H15.0146C15.7969 28.1191 16.5791 28.0488 17.3408 27.9111L17.4199 27.8965C17.6074 27.8625 17.7802 27.7723 17.9152 27.6378C18.0502 27.5033 18.1411 27.3309 18.1758 27.1436L18.6357 24.6562C19.6963 24.2578 20.6748 23.6924 21.5537 22.9717L23.9326 23.8184C24.112 23.8818 24.3065 23.8892 24.4902 23.8395C24.6738 23.7897 24.838 23.6853 24.9609 23.54L25.0137 23.4785C26.0332 22.2744 26.8154 20.918 27.3457 19.4443L27.3721 19.3682C27.4189 19.2305 27.4336 19.084 27.416 18.9434Z" fill="black" fill-opacity="0.15"/>
<path d="M20.1562 14.707C20.1562 13.8193 19.9307 12.9814 19.5352 12.252C18.6621 10.6436 16.96 9.55078 15 9.55078C12.1523 9.55078 9.84375 11.8594 9.84375 14.707C9.84375 16.667 10.9365 18.3691 12.5449 19.2422C13.2744 19.6377 14.1094 19.8633 15 19.8633C17.8477 19.8633 20.1562 17.5547 20.1562 14.707ZM11.7188 14.707C11.7188 13.8311 12.0615 13.0078 12.6797 12.3867C13.3008 11.7656 14.124 11.4258 15 11.4258C15.876 11.4258 16.6992 11.7656 17.3203 12.3867C17.6255 12.691 17.8675 13.0527 18.0325 13.4509C18.1974 13.8491 18.2819 14.276 18.2812 14.707C18.2812 15.583 17.9385 16.4063 17.3203 17.0273C17.016 17.3325 16.6543 17.5746 16.2561 17.7395C15.8579 17.9044 15.431 17.989 15 17.9883C14.124 17.9883 13.3008 17.6455 12.6797 17.0273C12.3745 16.723 12.1325 16.3613 11.9675 15.9631C11.8026 15.5649 11.7181 15.138 11.7188 14.707Z" fill="black"/>
<path d="M17.4053 27.8965C17.5928 27.8625 17.7655 27.7723 17.9005 27.6378C18.0355 27.5033 18.1264 27.3309 18.1611 27.1436L18.6211 24.6533C19.6812 24.2559 20.6682 23.6857 21.542 22.9658L23.9238 23.8125C24.1032 23.876 24.2977 23.8833 24.4814 23.8336C24.665 23.7839 24.8292 23.6795 24.9522 23.5342L25.0049 23.4727C26.0244 22.2686 26.8096 20.9092 27.3398 19.4326L27.3662 19.3564C27.416 19.2217 27.4307 19.0811 27.416 18.9434C27.3897 18.7119 27.2783 18.4922 27.0938 18.3311L25.1807 16.6934L25.1748 16.6904C25.2656 16.1338 25.3125 15.5654 25.3125 14.9971C25.3125 14.502 25.2773 14.0039 25.207 13.5176C25.1982 13.4531 25.1865 13.3887 25.1777 13.3242C25.1777 13.3184 25.1748 13.3096 25.1748 13.3037L27.0938 11.6631C27.2959 11.4902 27.4131 11.2412 27.4219 10.9834C27.4248 10.8662 27.4072 10.7461 27.3662 10.6318L27.3398 10.5557C26.8116 9.07917 26.0205 7.71044 25.0049 6.51562L24.9522 6.4541C24.8289 6.30923 24.6647 6.2051 24.4812 6.15541C24.2976 6.10573 24.1033 6.11283 23.9238 6.17578L21.542 7.02246C20.6631 6.30176 19.6846 5.7334 18.624 5.33496H18.6211L18.1611 2.84473C18.1582 2.83008 18.1553 2.8125 18.1494 2.79785C18.1071 2.62072 18.0143 2.4597 17.8822 2.33435C17.7501 2.209 17.5844 2.12474 17.4053 2.0918L17.3262 2.07715C15.7998 1.80176 14.1943 1.80176 12.668 2.07715L12.5889 2.0918C12.4014 2.12577 12.2286 2.216 12.0936 2.35048C11.9586 2.48497 11.8677 2.65735 11.833 2.84473L11.3701 5.34668C10.318 5.74522 9.3383 6.31328 8.46973 7.02832L6.07032 6.17578C5.89092 6.11233 5.69646 6.10497 5.51278 6.15469C5.32911 6.2044 5.1649 6.30883 5.042 6.4541L4.98926 6.51562C3.97484 7.71129 3.18391 9.07979 2.6543 10.5557L2.62794 10.6318C2.56688 10.8021 2.55625 10.9864 2.5973 11.1625C2.63835 11.3387 2.72935 11.4993 2.85938 11.625C2.87403 11.6367 2.88575 11.6514 2.9004 11.6631L4.84278 13.3213V13.3242C4.75196 13.875 4.70801 14.4346 4.70801 14.9941C4.70801 15.5566 4.75196 16.1191 4.84278 16.667L2.9004 18.3252C2.75566 18.4491 2.65207 18.6141 2.6034 18.7983C2.55473 18.9826 2.56329 19.1772 2.62794 19.3564L2.6543 19.4326C3.18458 20.9092 3.96973 22.2715 4.98926 23.4727L5.042 23.5342C5.18555 23.7012 5.37598 23.8096 5.58399 23.8477C5.74219 23.877 5.90919 23.8682 6.07032 23.8125L8.46973 22.96C8.47266 22.9629 8.47852 22.9658 8.48145 22.9688C9.35157 23.6807 10.3213 24.2461 11.3701 24.6416L11.833 27.1436C11.8677 27.3309 11.9586 27.5033 12.0936 27.6378C12.2286 27.7723 12.4014 27.8625 12.5889 27.8965L12.668 27.9111C13.4326 28.0488 14.2148 28.1191 14.9971 28.1191H15.0059C15.7852 28.1191 16.5674 28.0488 17.3262 27.9111L17.4053 27.8965ZM16.2393 25.9482C15.4118 26.042 14.5765 26.042 13.749 25.9482L13.2246 23.1006L12.1172 22.6758C11.2822 22.3594 10.5059 21.9082 9.81153 21.3369L8.89161 20.5781L6.15528 21.5508C5.65723 20.8799 5.24122 20.1562 4.90723 19.3945L7.11915 17.5049L6.92872 16.333C6.8584 15.8965 6.82032 15.4453 6.82032 15C6.82032 14.5518 6.85547 14.1035 6.92872 13.667L7.11915 12.4951L4.90723 10.6055C5.23829 9.84082 5.65723 9.12012 6.15528 8.44922L8.89161 9.42188L9.81153 8.66309C10.5059 8.0918 11.2822 7.64062 12.1172 7.32422L13.2275 6.90527L13.752 4.05762C14.5752 3.96387 15.416 3.96387 16.2422 4.05762L16.7666 6.89941L17.8828 7.31836C18.7236 7.63477 19.5059 8.08594 20.2061 8.66016L21.126 9.41602L23.8447 8.45215C24.3428 9.12305 24.7588 9.84668 25.0928 10.6084L22.9043 12.4805L23.0947 13.6494C23.168 14.0918 23.2061 14.5459 23.2061 15C23.2061 15.4541 23.168 15.9082 23.0947 16.3506L22.9014 17.5254L25.0898 19.3975C24.7581 20.1618 24.3393 20.8853 23.8418 21.5537L21.1231 20.5898L20.2031 21.3457C19.5029 21.9199 18.7236 22.3711 17.8799 22.6875L16.7637 23.1064L16.2393 25.9482Z" fill="black"/>
</svg>
