<svg width="32" height="32" viewBox="0 0 32 32" fill="none" xmlns="http://www.w3.org/2000/svg">
<path opacity="0.16" d="M13.5174 2.10964C13.8301 1.76051 14.2128 1.48123 14.6406 1.29003C15.0685 1.09883 15.5318 1 16.0005 1C16.4691 1 16.9325 1.09883 17.3603 1.29003C17.7882 1.48123 18.1709 1.76051 18.4835 2.10964L19.65 3.41281C19.9834 3.78526 20.3963 4.07794 20.8581 4.26919C21.32 4.46044 21.8189 4.54537 22.318 4.51767L24.0678 4.42101C24.5358 4.39521 25.004 4.46842 25.4418 4.63586C25.8796 4.80329 26.2771 5.06119 26.6085 5.39271C26.9399 5.72422 27.1976 6.12191 27.3648 6.55979C27.532 6.99767 27.605 7.4659 27.579 7.9339L27.4823 9.68201C27.4549 10.1808 27.5399 10.6794 27.7312 11.141C27.9224 11.6025 28.215 12.0151 28.5872 12.3483L29.8904 13.5149C30.2398 13.8275 30.5193 14.2103 30.7106 14.6383C30.902 15.0663 31.0009 15.5299 31.0009 15.9987C31.0009 16.4675 30.902 16.9311 30.7106 17.3591C30.5193 17.7871 30.2398 18.1699 29.8904 18.4825L28.5872 19.6491C28.2147 19.9825 27.9221 20.3954 27.7308 20.8572C27.5396 21.319 27.4546 21.818 27.4823 22.3171L27.579 24.0668C27.6048 24.5348 27.5316 25.003 27.3641 25.4408C27.1967 25.8786 26.9388 26.2762 26.6073 26.6076C26.2758 26.9389 25.8781 27.1966 25.4402 27.3639C25.0023 27.5311 24.5341 27.6041 24.0661 27.5781L22.318 27.4814C21.8192 27.454 21.3206 27.539 20.859 27.7302C20.3975 27.9215 19.9849 28.214 19.6517 28.5863L18.4851 29.8894C18.1725 30.2388 17.7897 30.5183 17.3617 30.7097C16.9337 30.9011 16.4701 31 16.0013 31C15.5325 31 15.0689 30.9011 14.6409 30.7097C14.2129 30.5183 13.8301 30.2388 13.5174 29.8894L12.3509 28.5863C12.0175 28.2138 11.6046 27.9211 11.1428 27.7299C10.681 27.5386 10.182 27.4537 9.68294 27.4814L7.93316 27.5781C7.46515 27.6039 6.99695 27.5306 6.55915 27.3632C6.12135 27.1958 5.72379 26.9379 5.39243 26.6064C5.06107 26.2748 4.80336 25.8772 4.63614 25.4393C4.46891 25.0014 4.39592 24.5332 4.42195 24.0652L4.5186 22.3171C4.54604 21.8182 4.461 21.3196 4.26975 20.8581C4.07851 20.3966 3.78596 19.9839 3.41374 19.6507L2.11057 18.4842C1.76117 18.1716 1.48165 17.7888 1.29029 17.3608C1.09892 16.9328 1 16.4692 1 16.0004C1 15.5315 1.09892 15.068 1.29029 14.64C1.48165 14.212 1.76117 13.8291 2.11057 13.5165L3.41374 12.35C3.78619 12.0166 4.07887 11.6037 4.27012 11.1419C4.46138 10.68 4.5463 10.1811 4.5186 9.68201L4.42195 7.93223C4.39639 7.46435 4.46978 6.99634 4.63732 6.55874C4.80486 6.12114 5.0628 5.72379 5.39429 5.39261C5.72578 5.06144 6.12338 4.80388 6.56114 4.63675C6.9989 4.46962 7.46697 4.39668 7.93483 4.42268L9.68294 4.51934C10.1818 4.54678 10.6804 4.46173 11.1419 4.27049C11.6034 4.07925 12.0161 3.7867 12.3493 3.41448L13.5174 2.10964Z" fill="black"/>
<path d="M13.5174 2.10964C13.8301 1.76051 14.2128 1.48123 14.6406 1.29003C15.0685 1.09883 15.5318 1 16.0005 1C16.4691 1 16.9325 1.09883 17.3603 1.29003C17.7882 1.48123 18.1709 1.76051 18.4835 2.10964L19.65 3.41281C19.9834 3.78526 20.3963 4.07794 20.8581 4.26919C21.32 4.46044 21.8189 4.54537 22.318 4.51767L24.0678 4.42101C24.5358 4.39521 25.004 4.46842 25.4418 4.63586C25.8796 4.80329 26.2771 5.06119 26.6085 5.39271C26.9399 5.72422 27.1976 6.12191 27.3648 6.55979C27.532 6.99767 27.605 7.4659 27.579 7.9339L27.4823 9.68201C27.4549 10.1808 27.5399 10.6794 27.7312 11.141C27.9224 11.6025 28.215 12.0151 28.5872 12.3483L29.8904 13.5149C30.2398 13.8275 30.5193 14.2103 30.7106 14.6383C30.902 15.0663 31.0009 15.5299 31.0009 15.9987C31.0009 16.4675 30.902 16.9311 30.7106 17.3591C30.5193 17.7871 30.2398 18.1699 29.8904 18.4825L28.5872 19.6491C28.2147 19.9825 27.9221 20.3954 27.7308 20.8572C27.5396 21.319 27.4546 21.818 27.4823 22.3171L27.579 24.0668C27.6048 24.5348 27.5316 25.003 27.3641 25.4408C27.1967 25.8786 26.9388 26.2762 26.6073 26.6076C26.2758 26.9389 25.8781 27.1966 25.4402 27.3639C25.0023 27.5311 24.5341 27.6041 24.0661 27.5781L22.318 27.4814C21.8192 27.454 21.3206 27.539 20.859 27.7302C20.3975 27.9215 19.9849 28.214 19.6517 28.5863L18.4851 29.8894C18.1725 30.2388 17.7897 30.5183 17.3617 30.7097C16.9337 30.9011 16.4701 31 16.0013 31C15.5325 31 15.0689 30.9011 14.6409 30.7097C14.2129 30.5183 13.8301 30.2388 13.5174 29.8894L12.3509 28.5863C12.0175 28.2138 11.6046 27.9211 11.1428 27.7299C10.681 27.5386 10.182 27.4537 9.68294 27.4814L7.93316 27.5781C7.46515 27.6039 6.99695 27.5306 6.55915 27.3632C6.12135 27.1958 5.72379 26.9379 5.39243 26.6064C5.06107 26.2748 4.80336 25.8772 4.63614 25.4393C4.46891 25.0014 4.39592 24.5332 4.42195 24.0652L4.5186 22.3171C4.54604 21.8182 4.461 21.3196 4.26975 20.8581C4.07851 20.3966 3.78596 19.9839 3.41374 19.6507L2.11057 18.4842C1.76117 18.1716 1.48165 17.7888 1.29029 17.3608C1.09892 16.9328 1 16.4692 1 16.0004C1 15.5315 1.09892 15.068 1.29029 14.64C1.48165 14.2119 1.76117 13.8291 2.11057 13.5165L3.41374 12.35C3.78619 12.0166 4.07887 11.6037 4.27012 11.1419C4.46138 10.68 4.5463 10.1811 4.5186 9.68201L4.42195 7.93223C4.39639 7.46435 4.46978 6.99634 4.63732 6.55874C4.80486 6.12114 5.0628 5.72379 5.39429 5.39261C5.72578 5.06144 6.12338 4.80388 6.56114 4.63675C6.99889 4.46962 7.46697 4.39668 7.93483 4.42268L9.68294 4.51934C10.1818 4.54678 10.6804 4.46173 11.1419 4.27049C11.6034 4.07925 12.0161 3.7867 12.3493 3.41448L13.5174 2.10964Z" stroke="black" stroke-width="2"/>
<path d="M11.8345 11.8334H11.8511V11.8501H11.8345V11.8334ZM20.1667 20.1657H20.1834V20.1823H20.1667V20.1657Z" stroke="black" stroke-width="3" stroke-linejoin="round"/>
<path d="M20.9999 11.0002L11.0012 20.9989" stroke="black" stroke-width="2" stroke-linecap="round" stroke-linejoin="round"/>
</svg>
