<svg width="32" height="32" viewBox="0 0 32 32" fill="none" xmlns="http://www.w3.org/2000/svg">
<path d="M31 29.0952V12.9048C31 12.6091 30.9322 12.3174 30.802 12.0529C30.6719 11.7884 30.4829 11.5584 30.25 11.381L17.125 1.38095C16.8004 1.13367 16.4057 1 16 1C15.5943 1 15.1996 1.13367 14.875 1.38095L1.75 11.381C1.51713 11.5584 1.32813 11.7884 1.19795 12.0529C1.06777 12.3174 1 12.6091 1 12.9048V29.0952C1 29.6004 1.19754 30.0849 1.54918 30.4421C1.90081 30.7993 2.37772 31 2.875 31H10.375C10.8723 31 11.3492 30.7993 11.7008 30.4421C12.0525 30.0849 12.25 29.6004 12.25 29.0952V23.381C12.25 22.8758 12.4475 22.3913 12.7992 22.0341C13.1508 21.6769 13.6277 21.4762 14.125 21.4762H17.875C18.3723 21.4762 18.8492 21.6769 19.2008 22.0341C19.5525 22.3913 19.75 22.8758 19.75 23.381V29.0952C19.75 29.6004 19.9475 30.0849 20.2992 30.4421C20.6508 30.7993 21.1277 31 21.625 31H29.125C29.6223 31 30.0992 30.7993 30.4508 30.4421C30.8025 30.0849 31 29.6004 31 29.0952Z" fill="#D9D9D9" stroke="black" stroke-width="2" stroke-linecap="round" stroke-linejoin="round"/>
</svg>
