<svg width="30" height="30" viewBox="0 0 30 30" fill="none" xmlns="http://www.w3.org/2000/svg">
<path opacity="0.5" d="M15 25C12.3478 25 9.8043 23.9464 7.92893 22.0711C6.05357 20.1957 5 17.6522 5 15C5 12.3478 6.05357 9.8043 7.92893 7.92893C9.8043 6.05357 12.3478 5 15 5V25Z" fill="black"/>
<path fill-rule="evenodd" clip-rule="evenodd" d="M20.5875 10.5875C20.4119 10.7633 20.3133 11.0016 20.3133 11.25C20.3133 11.4984 20.4119 11.7367 20.5875 11.9125L22.7375 14.0625H12.5C12.2514 14.0625 12.0129 14.1613 11.8371 14.3371C11.6613 14.5129 11.5625 14.7514 11.5625 15C11.5625 15.2486 11.6613 15.4871 11.8371 15.6629C12.0129 15.8387 12.2514 15.9375 12.5 15.9375H22.7375L20.5875 18.0875C20.4954 18.1733 20.4215 18.2768 20.3703 18.3918C20.319 18.5068 20.2915 18.631 20.2893 18.7568C20.287 18.8827 20.3102 19.0078 20.3573 19.1245C20.4045 19.2412 20.4747 19.3473 20.5637 19.4363C20.6527 19.5253 20.7588 19.5955 20.8755 19.6427C20.9922 19.6898 21.1173 19.713 21.2432 19.7107C21.369 19.7085 21.4932 19.681 21.6082 19.6297C21.7232 19.5785 21.8267 19.5046 21.9125 19.4125L25.6625 15.6625C25.8381 15.4867 25.9367 15.2484 25.9367 15C25.9367 14.7516 25.8381 14.5133 25.6625 14.3375L21.9125 10.5875C21.7367 10.4119 21.4984 10.3133 21.25 10.3133C21.0016 10.3133 20.7633 10.4119 20.5875 10.5875Z" fill="black"/>
</svg>
