<svg width="148" height="148" viewBox="0 0 148 148" fill="none" xmlns="http://www.w3.org/2000/svg">
<path opacity="0.2" d="M129.5 74C129.5 84.9769 126.245 95.7072 120.147 104.834C114.048 113.961 105.38 121.075 95.239 125.275C85.0977 129.476 73.9385 130.575 63.1725 128.434C52.4066 126.292 42.5174 121.006 34.7556 113.244C26.9938 105.483 21.7079 95.5935 19.5664 84.8275C17.425 74.0616 18.524 62.9024 22.7247 52.7611C26.9254 42.6198 34.039 33.9519 43.1659 27.8534C52.2928 21.755 63.0232 18.5 74 18.5C88.7195 18.5 102.836 24.3473 113.244 34.7556C123.653 45.1638 129.5 59.2805 129.5 74Z" fill="black"/>
<path d="M80.9375 104.062C80.9375 105.435 80.5306 106.776 79.7683 107.917C79.006 109.058 77.9226 109.947 76.6549 110.472C75.3872 110.997 73.9923 111.134 72.6466 110.867C71.3008 110.599 70.0647 109.938 69.0945 108.968C68.1242 107.998 67.4635 106.762 67.1958 105.416C66.9281 104.07 67.0655 102.675 67.5906 101.408C68.1157 100.14 69.0049 99.0565 70.1458 98.2942C71.2866 97.5319 72.6279 97.125 74 97.125C75.84 97.125 77.6045 97.8559 78.9056 99.157C80.2066 100.458 80.9375 102.223 80.9375 104.062ZM74 41.625C61.2466 41.625 50.875 50.9617 50.875 62.4375V64.75C50.875 65.9766 51.3623 67.153 52.2297 68.0204C53.097 68.8877 54.2734 69.375 55.5 69.375C56.7267 69.375 57.903 68.8877 58.7704 68.0204C59.6378 67.153 60.125 65.9766 60.125 64.75V62.4375C60.125 56.0781 66.3514 50.875 74 50.875C81.6486 50.875 87.875 56.0781 87.875 62.4375C87.875 68.7969 81.6486 74 74 74C72.7734 74 71.597 74.4873 70.7297 75.3546C69.8623 76.222 69.375 77.3984 69.375 78.625V83.25C69.375 84.4766 69.8623 85.653 70.7297 86.5204C71.597 87.3877 72.7734 87.875 74 87.875C75.2267 87.875 76.403 87.3877 77.2704 86.5204C78.1378 85.653 78.625 84.4766 78.625 83.25V82.8337C89.17 80.897 97.125 72.4853 97.125 62.4375C97.125 50.9617 86.7535 41.625 74 41.625ZM134.125 74C134.125 85.8916 130.599 97.5162 123.992 107.404C117.386 117.291 107.995 124.998 97.0089 129.548C86.0225 134.099 73.9333 135.29 62.2702 132.97C50.6071 130.65 39.8939 124.923 31.4852 116.515C23.0766 108.106 17.3502 97.3929 15.0303 85.7298C12.7104 74.0667 13.9011 61.9776 18.4518 50.9912C23.0025 40.0047 30.7089 30.6145 40.5964 24.0079C50.4839 17.4013 62.1084 13.875 74 13.875C89.941 13.8918 105.224 20.2318 116.496 31.5038C127.768 42.7758 134.108 58.059 134.125 74ZM124.875 74C124.875 63.9379 121.891 54.1017 116.301 45.7354C110.711 37.369 102.765 30.8482 93.469 26.9976C84.1729 23.147 73.9436 22.1395 64.0748 24.1025C54.206 26.0656 45.141 30.9109 38.026 38.0259C30.911 45.1409 26.0656 54.206 24.1026 64.0748C22.1396 73.9436 23.147 84.1728 26.9977 93.469C30.8483 102.765 37.369 110.711 45.7354 116.301C54.1017 121.891 63.9379 124.875 74 124.875C87.4882 124.86 100.42 119.495 109.957 109.957C119.495 100.42 124.86 87.4882 124.875 74Z" fill="black"/>
</svg>
